<svg id="Layer_2" data-name="Layer 2" xmlns="http://www.w3.org/2000/svg" viewBox="0 0 674.23 652.28"><defs><style>.cls-1,.cls-2{fill:gray;}.cls-2{stroke:#938c8c;stroke-miterlimit:10;stroke-width:0.25px;}</style></defs><title>mosque-icon-aboout-page</title><path class="cls-1" d="M840.21,577.28" transform="translate(-189.77 -130.72)"/><polygon class="cls-1" points="654.39 329.54 648.13 323.3 647.94 445 647.91 447.47 648 447.47 631.36 432.58 631.55 651.44 632.16 651.43 674.23 602.73 674.06 349.83 654.39 329.54"/><path class="cls-2" d="M599.17,432.07v0Z" transform="translate(-189.77 -130.72)"/><path class="cls-1" d="M599.17,432.07" transform="translate(-189.77 -130.72)"/><line class="cls-2" x1="418.95" y1="343.33" x2="418.95" y2="440.33"/><line class="cls-2" x1="631.35" y1="651.35" x2="631.35" y2="429.82"/><polyline class="cls-2" points="333.61 580.14 333.54 444.96 333.54 632.1"/><path class="cls-1" d="M504,416.51" transform="translate(-189.77 -130.72)"/><path class="cls-1" d="M592.39,379.74a119.27,119.27,0,0,0-25.57-20.85c45,27.17,43.27,78.36,43.27,78.36l-2.37-2.37C602,362.7,539.9,347.25,529,345.1l-1.62-.29s.57.09,1.62.29c15.23,2.82,27.61,7.67,37.66,13.71-21.78-13.11-40-14.13-40-14.13-27-16.84-59.89-1.66-59.89-1.66-30,1.45-48.58,18.41-52.68,22.55,11.3-10.85,26.62-19,47.37-21.52,2.5-.36,4-.41,4-.41q-2,.17-4,.41c-16,2.33-75,17.52-76,115.1L601,431.07l36.71,25.39v-1.66C629.65,403.47,592.39,379.74,592.39,379.74ZM486.72,340.55S456,334.73,457.5,449.39l-2.86.08s-4.23-96.87,25.24-110.06c0,0,5.53-1.47,8.14.16A1.24,1.24,0,0,1,486.72,340.55Zm57.6,97.29-2.07.3-.3-1.19c-2.44-92.64-30.38-96.87-35.16-96.92l-.69,0a6.11,6.11,0,0,1,.69,0C544.61,338.9,544.32,437.84,544.32,437.84Z" transform="translate(-189.77 -130.72)"/><path class="cls-1" d="M413.13,366.56a125.73,125.73,0,0,0-17.67,10.93c-11.52,9.55-40.55,38.31-41.08,85.74l28.37-3.7C382.47,454.11,380.59,398.93,413.13,366.56Z" transform="translate(-189.77 -130.72)"/><path class="cls-1" d="M461.5,344.06q1.95-.24,4-.41S464,343.7,461.5,344.06Z" transform="translate(-189.77 -130.72)"/><path class="cls-1" d="M506.1,340.06l.69,0A6.11,6.11,0,0,0,506.1,340.06Z" transform="translate(-189.77 -130.72)"/><path class="cls-1" d="M529,345.1c-1-.21-1.62-.29-1.62-.29Z" transform="translate(-189.77 -130.72)"/><path class="cls-1" d="M467.52,343.21s28-14.83,59.46,1.64C527,344.85,497.71,334.72,467.52,343.21Z" transform="translate(-189.77 -130.72)"/><path class="cls-1" d="M491.44,337.46a28.12,28.12,0,0,0,3.27-2l.2-.33v-3.59h1.76v3.79a12.89,12.89,0,0,0,2.42,2c1.24.72-3.66,1.11-3.66,1.11Z" transform="translate(-189.77 -130.72)"/><ellipse class="cls-1" cx="306.21" cy="196.98" rx="4.8" ry="5"/><rect class="cls-1" x="305.53" y="188.87" width="1.18" height="3.59"/><rect class="cls-1" x="305.53" y="179.47" width="1.18" height="3.59"/><ellipse class="cls-1" cx="306.25" cy="186.49" rx="3.4" ry="3.63"/><path class="cls-1" d="M495.75,333.74" transform="translate(-189.77 -130.72)"/><path class="cls-1" d="M492.28,304.11a5.46,5.46,0,0,1,4.35-5.22h-.16a5.83,5.83,0,1,0,0,11.64,6.39,6.39,0,0,0,4.45-1.77,6,6,0,0,1-2.9.74A5.57,5.57,0,0,1,492.28,304.11Z" transform="translate(-189.77 -130.72)"/><path class="cls-1" d="M238.79,482c-.53-28.2-.49-27.6-.9-56.12-.2-14.26-.41-28.49-.67-42.29-.41-20.82-.4-37.27-.51-56.55,0-4.2-.15-9.09-.34-13.14l0-24.78c.09-16.47-.82-37.16,0-55.58,3.65-1.36,6.93-3.07,9-5.83.56-.87,1.55-1,1.59-2.38.32-.7.29-1,.26-3,.44-5.51.13-11.69.56-17.2,0-.73-.09-1.45-.13-2.17-2.37-7.94-10.28-9.66-16.39-13.4-1-6.35,6.38-5.48,7.82-10.45.69-2.39.11-5.7.08-9.37,0-3.33.41-7.08-.23-9.35-.91-3.14-5.16-3.78-6.31-6.49-1.75-4.1.89-8.79-.18-13.72-.95-4.31-6.05-9.3-10.23-9.39-3.89-.08-8.91,3.58-10.16,7.47-1.36,4.2.47,9.3-.75,13.77-6.66,3.34-7.22,5.71-7.55,15.11-.12,3.5-.84,7-.38,9.38.77,3.89,9,6.38,7.21,11.13-.63,1.66-10.84,4-12.79,5.43-4.4,3.29-4.68,9.36-5,16.52-.17,4.3-1.34,7.61-.22,12.18,1.24,5,6.43,6,9.94,9.72-.17,21.12-2.41,39.71-3.36,60.23l-.46,24.79c-3.19,64.37-2.3,105.35-5,172.28Z" transform="translate(-189.77 -130.72)"/><path class="cls-1" d="M837.89,454.05l-231.8,22v-4.25l42-4.13-46.87-31.59L239.11,483.26v-3.43l-45.32,6.35-4,241.57,40.88,2.63V624.64s-3.06-38.31,41.15-55.34c0,0,43.28,6.74,43.28,50.37V735.83l13.84.89V625.85s-3.67-45,49.41-65.06c0,0,52,7.92,52,59.22V743.26l16,1V622.16S442,574,504.62,552.62c0,0,23.45,3.24,41.33,18.7l88.35-4.47.41-37s1.35-11.48,19.37-17.11c0,0,19.59,2.7,20,16.66.36,11.13.57,28.72.65,35.38l42.56-2.16-.42-35.7s-2.25-12.39,21.62-20.95c0,0,20.94,4.05,21.17,18.69.18,11.75.65,29.3.83,35.77l63.36-3.09.45.44h0l2.54,2.54,11,10.94ZM248.55,545.34s-2.15-13.63,23.86-29.71l.23-.14s25.68,5.72,26.17,24.78Zm102-10.54s-1-17.57,29.59-32.33l.22-.1s29.62,8.15,29.78,27.29Zm119.49-11.09s-.8-17.53,34.33-35.14c0,0,35.62,7.8,36.19,28.95Z" transform="translate(-189.77 -130.72)"/><path class="cls-1" d="M523.38,577.43v186l94.66,6.2V655.53s-6.08-25.22,46.84-46.84c0,0,47.29,15.31,48,40.54s0,126.56,0,126.56l-.15-.1L821.93,783l.14-.16,16-19.25-.19-183-10.15-10.87-6.6-6.16Z" transform="translate(-189.77 -130.72)"/><polygon class="cls-1" points="634.56 427.1 637.11 429.63 634.57 427.09 634.56 427.1"/><polygon class="cls-1" points="634.56 427.1 637.11 429.63 634.57 427.09 634.56 427.1"/><polygon class="cls-1" points="631.37 432.8 637.97 438.96 632.18 432.76 631.37 432.8"/></svg>